<svg xmlns="http://www.w3.org/2000/svg" width="800" height="600">
    "<title>Red Bull Ring </title>"<text x="600" y="30" font-size="20" font-family="Arial" fill="black">Red Bull Ring</text>
<polyline points="513.724550898271,538.8529659828878 336.8143712575461,600.0 328.47904191616993,595.2769187522916 295.2814371257485,534.6359291539561 201.5329341317806,367.80995220686026 113.42275449104748,162.10289569878825 0.0,19.904413831982197 4.646706586837598,7.590666291837351 101.2215568862919,0.0 353.2455089820534,43.604160809283826 497.14970059885076,53.978071408287974 506.05988023953824,91.84706213111167 473.82035928150094,140.5960078717161 414.56287425149014,169.77790272698843 356.45508982035733,165.81388810774473 259.9760479042351,147.17458532480157 220.9820359281831,187.40511667117977 221.84431137732034,230.75625527137487 280.7664670659243,351.27916783838293 325.6526946107686,361.65307843678784 347.8323353294106,342.8450941805196 379.017964071902,301.68681473175246 435.25748502993247,274.86646050063393 730.2514970060253,267.3601349451595 767.6167664671348,294.09614843991517 800.0,427.60753443916985 791.7125748502898,437.64408209152384 736.862275449127,471.380376722378 513.724550898271,538.8529659828878" style="fill:none;stroke:red;stroke-width:None" />
</svg>