<svg xmlns="http://www.w3.org/2000/svg" width="1000" height="600">
    <polyline points="100.0,198.9261744966443 128.57142857142858,179.73154362416108 157.14285714285714,175.30201342281885 185.71428571428572,167.91946308724823 214.28571428571428,167.91946308724823 242.85714285714286,156.10738255033561 271.42857142857144,102.95302013422815 300.0,100.0 328.57142857142856,102.95302013422815 357.14285714285717,129.53020134228177 385.7142857142857,144.29530201342277 414.2857142857143,147.24832214765092 442.8571428571429,153.15436241610746 471.42857142857144,156.10738255033561 500.0,154.63087248322154 528.5714285714287,150.20134228187908 557.1428571428571,159.06040268456377 585.7142857142858,159.06040268456377 614.2857142857143,179.73154362416108 642.8571428571429,181.20805369127515 671.4285714285714,181.20805369127515 700.0,176.7785234899328 728.5714285714286,176.7785234899328 757.1428571428572,169.3959731543623 785.7142857142858,172.3489932885907 814.2857142857143,188.59060402684565 842.8571428571429,193.020134228188 871.4285714285714,195.97315436241604 900.0,198.9261744966443 100.0,198.9261744966443" style="fill:white;stroke:red;stroke-width:4" /><text x="100.0" y="220" style="writing-mode : tb; glyph-orientation-vertical : 0">Tramo 1</text>
<text x="128.57142857142858" y="220" style="writing-mode : tb; glyph-orientation-vertical : 0">Tramo 2</text>
<text x="157.14285714285714" y="220" style="writing-mode : tb; glyph-orientation-vertical : 0">Tramo 3</text>
<text x="185.71428571428572" y="220" style="writing-mode : tb; glyph-orientation-vertical : 0">Tramo 4</text>
<text x="214.28571428571428" y="220" style="writing-mode : tb; glyph-orientation-vertical : 0">Tramo 5</text>
<text x="242.85714285714286" y="220" style="writing-mode : tb; glyph-orientation-vertical : 0">Tramo 6</text>
<text x="271.42857142857144" y="220" style="writing-mode : tb; glyph-orientation-vertical : 0">Tramo 7</text>
<text x="300.0" y="220" style="writing-mode : tb; glyph-orientation-vertical : 0">Tramo 8</text>
<text x="328.57142857142856" y="220" style="writing-mode : tb; glyph-orientation-vertical : 0">Tramo 9</text>
<text x="357.14285714285717" y="220" style="writing-mode : tb; glyph-orientation-vertical : 0">Tramo 10</text>
<text x="385.7142857142857" y="220" style="writing-mode : tb; glyph-orientation-vertical : 0">Tramo 11</text>
<text x="414.2857142857143" y="220" style="writing-mode : tb; glyph-orientation-vertical : 0">Tramo 12</text>
<text x="442.8571428571429" y="220" style="writing-mode : tb; glyph-orientation-vertical : 0">Tramo 13</text>
<text x="471.42857142857144" y="220" style="writing-mode : tb; glyph-orientation-vertical : 0">Tramo 14</text>
<text x="500.0" y="220" style="writing-mode : tb; glyph-orientation-vertical : 0">Tramo 15</text>
<text x="528.5714285714287" y="220" style="writing-mode : tb; glyph-orientation-vertical : 0">Tramo 16</text>
<text x="557.1428571428571" y="220" style="writing-mode : tb; glyph-orientation-vertical : 0">Tramo 17</text>
<text x="585.7142857142858" y="220" style="writing-mode : tb; glyph-orientation-vertical : 0">Tramo 18</text>
<text x="614.2857142857143" y="220" style="writing-mode : tb; glyph-orientation-vertical : 0">Tramo 19</text>
<text x="642.8571428571429" y="220" style="writing-mode : tb; glyph-orientation-vertical : 0">Tramo 20</text>
<text x="671.4285714285714" y="220" style="writing-mode : tb; glyph-orientation-vertical : 0">Tramo 21</text>
<text x="700.0" y="220" style="writing-mode : tb; glyph-orientation-vertical : 0">Tramo 22</text>
<text x="728.5714285714286" y="220" style="writing-mode : tb; glyph-orientation-vertical : 0">Tramo 23</text>
<text x="757.1428571428572" y="220" style="writing-mode : tb; glyph-orientation-vertical : 0">Tramo 24</text>
<text x="785.7142857142858" y="220" style="writing-mode : tb; glyph-orientation-vertical : 0">Tramo 25</text>
<text x="814.2857142857143" y="220" style="writing-mode : tb; glyph-orientation-vertical : 0">Tramo 26</text>
<text x="842.8571428571429" y="220" style="writing-mode : tb; glyph-orientation-vertical : 0">Tramo 27</text>
<text x="871.4285714285714" y="220" style="writing-mode : tb; glyph-orientation-vertical : 0">Tramo 28</text>
<text x="900.0" y="220" style="writing-mode : tb; glyph-orientation-vertical : 0">Tramo 29</text>
</svg>